<svg id="Layer_1" data-name="Layer 1" xmlns="http://www.w3.org/2000/svg" viewBox="0 0 132.01 22.7"><defs><style>.cls-1,.cls-6{fill:none;stroke-miterlimit:10;}.cls-1{stroke:#012e57;}.cls-2{fill:#9921e8;}.cls-3{fill:#fff;}.cls-4{fill:#012e57;}.cls-5{fill:#ff8a00;}.cls-6{stroke:#ff8a00;stroke-width:2px;}</style></defs><title>lab2</title><path class="cls-1" d="M67.43,55,61.09,44.8V40h.64c1.05-1,0-1.66,0-1.66H56.66s-1.06.62,0,1.66h.63V44.8L51,55a1.08,1.08,0,0,0,.64,1.45h15.2A1.08,1.08,0,0,0,67.43,55Z" transform="translate(-32.55 -34.22)"/><path class="cls-2" d="M57.29,48.53l-3.59,5.6h11l-3.11-4.77a3.54,3.54,0,0,0-1.86-.21C58.91,49.36,57.91,48.59,57.29,48.53Z" transform="translate(-32.55 -34.22)"/><ellipse class="cls-3" cx="24.84" cy="15.66" rx="0.32" ry="0.31"/><ellipse class="cls-3" cx="27.82" cy="16.79" rx="0.72" ry="0.64"/><circle class="cls-3" cx="26.22" cy="15.56" r="0.21"/><ellipse class="cls-3" cx="25.9" cy="17.11" rx="0.32" ry="0.31"/><circle class="cls-3" cx="26.58" cy="18.77" r="0.05"/><circle class="cls-3" cx="26.96" cy="18.09" r="0.1"/><circle class="cls-2" cx="25.58" cy="13.9" r="0.21"/><ellipse class="cls-2" cx="26.85" cy="13.07" rx="0.42" ry="0.41"/><circle class="cls-2" cx="27.64" cy="14.62" r="0.1"/><ellipse class="cls-2" cx="26" cy="3.32" rx="0.63" ry="0.62"/><ellipse class="cls-2" cx="27.87" cy="1.1" rx="0.35" ry="0.35"/><ellipse class="cls-2" cx="24.53" cy="0.62" rx="0.63" ry="0.62"/><circle class="cls-2" cx="27.48" cy="2.49" r="0.21"/><ellipse class="cls-2" cx="26.22" cy="1.66" rx="0.42" ry="0.41"/><path class="cls-4" d="M47.85,55.14a4.84,4.84,0,0,1,0,.72,1.79,1.79,0,0,1-.11.49.56.56,0,0,1-.18.29.41.41,0,0,1-.25.08H38.72a1.17,1.17,0,0,1-.8-.28,1.13,1.13,0,0,1-.32-.91v-17a.43.43,0,0,1,.09-.26.75.75,0,0,1,.31-.18,2.9,2.9,0,0,1,.58-.12,8,8,0,0,1,.92,0,7.86,7.86,0,0,1,.92,0,3.06,3.06,0,0,1,.58.12.75.75,0,0,1,.31.18.43.43,0,0,1,.09.26v15h5.87a.41.41,0,0,1,.25.08.51.51,0,0,1,.18.26,1.7,1.7,0,0,1,.11.48A5.07,5.07,0,0,1,47.85,55.14Z" transform="translate(-32.55 -34.22)"/><path class="cls-4" d="M84.19,51.2a5.4,5.4,0,0,1-.28,1.8,4.75,4.75,0,0,1-.75,1.43A5.15,5.15,0,0,1,82,55.5a7,7,0,0,1-1.47.73,10.18,10.18,0,0,1-1.73.43,14.09,14.09,0,0,1-2,.13h-5a1,1,0,0,1-1.12-1.19V39.33a1.15,1.15,0,0,1,.32-.91,1.17,1.17,0,0,1,.8-.28h4.69a12.65,12.65,0,0,1,2.9.28,5.89,5.89,0,0,1,2,.88,3.94,3.94,0,0,1,1.25,1.47,4.93,4.93,0,0,1,.43,2.11,4.7,4.7,0,0,1-.17,1.27,3.9,3.9,0,0,1-.51,1.09,3.71,3.71,0,0,1-.81.87,4.08,4.08,0,0,1-1.11.6,5.12,5.12,0,0,1,1.47.51,4.17,4.17,0,0,1,1.16.93,4.12,4.12,0,0,1,.79,1.33A4.88,4.88,0,0,1,84.19,51.2Zm-4.9-7.86a2.71,2.71,0,0,0-.18-1,1.78,1.78,0,0,0-.52-.74,2.4,2.4,0,0,0-.87-.46,5.28,5.28,0,0,0-1.4-.15H74.4v4.84h2.12a3.63,3.63,0,0,0,1.31-.19,2.24,2.24,0,0,0,1.3-1.33A3,3,0,0,0,79.29,43.34Zm1,8A3,3,0,0,0,80,50.17a2.29,2.29,0,0,0-.64-.86,2.82,2.82,0,0,0-1.07-.53,6,6,0,0,0-1.68-.19H74.4V53.9h2.74a4.58,4.58,0,0,0,1.33-.17,2.72,2.72,0,0,0,.94-.49,2.37,2.37,0,0,0,.62-.81A2.57,2.57,0,0,0,80.25,51.33Z" transform="translate(-32.55 -34.22)"/><path class="cls-5" d="M99.53,53.8a5.54,5.54,0,0,1,0,.61,2.47,2.47,0,0,1-.06.43,1.16,1.16,0,0,1-.34.6,3.52,3.52,0,0,1-.61.42,7.76,7.76,0,0,1-1.1.49,8.81,8.81,0,0,1-1.48.39,9.38,9.38,0,0,1-1.81.16,9.53,9.53,0,0,1-3.43-.59,6.76,6.76,0,0,1-2.6-1.75,7.8,7.8,0,0,1-1.64-2.9,13,13,0,0,1-.57-4.06,12.8,12.8,0,0,1,.63-4.18,8.75,8.75,0,0,1,1.75-3.07A7.46,7.46,0,0,1,91,38.46a9.1,9.1,0,0,1,3.48-.64,7.91,7.91,0,0,1,1.48.13,9.09,9.09,0,0,1,1.32.33,7,7,0,0,1,1.1.48,2.94,2.94,0,0,1,.67.47,1.62,1.62,0,0,1,.27.32,1.06,1.06,0,0,1,.11.33,4.34,4.34,0,0,1,.07.47c0,.18,0,.4,0,.67s0,.53,0,.73a1.74,1.74,0,0,1-.1.48.66.66,0,0,1-.17.27.33.33,0,0,1-.23.09,1,1,0,0,1-.54-.25c-.22-.17-.51-.35-.85-.56a6.68,6.68,0,0,0-1.25-.55A5.16,5.16,0,0,0,94.59,41a4.19,4.19,0,0,0-2,.45,4.09,4.09,0,0,0-1.47,1.28,6.16,6.16,0,0,0-.92,2,10.4,10.4,0,0,0-.32,2.67,10.57,10.57,0,0,0,.34,2.82,5.33,5.33,0,0,0,1,2,3.93,3.93,0,0,0,1.5,1.15,4.94,4.94,0,0,0,2,.37,5.53,5.53,0,0,0,1.73-.23A7.48,7.48,0,0,0,97.67,53a9.18,9.18,0,0,0,.86-.52,1,1,0,0,1,.52-.22.39.39,0,0,1,.23.05.45.45,0,0,1,.14.23,2.05,2.05,0,0,1,.09.48C99.53,53.18,99.53,53.46,99.53,53.8Z" transform="translate(-32.55 -34.22)"/><path class="cls-4" d="M108,51.25a.28.28,0,0,1-.08.2.75.75,0,0,1-.28.1,5.34,5.34,0,0,1-1.13,0,.54.54,0,0,1-.26-.1.27.27,0,0,1-.07-.2v-.62a3.82,3.82,0,0,1-1.11.81,3.23,3.23,0,0,1-1.37.29,3.8,3.8,0,0,1-1.15-.17,2.3,2.3,0,0,1-.9-.48,2.13,2.13,0,0,1-.6-.79,2.75,2.75,0,0,1-.21-1.11,2.46,2.46,0,0,1,.27-1.19,2.14,2.14,0,0,1,.8-.84,4,4,0,0,1,1.32-.49,10,10,0,0,1,1.84-.15h.76V46a2.46,2.46,0,0,0-.07-.64,1.07,1.07,0,0,0-.25-.47,1,1,0,0,0-.46-.27,2.33,2.33,0,0,0-.7-.09,3.35,3.35,0,0,0-1,.13,5.27,5.27,0,0,0-.77.27l-.56.27a.83.83,0,0,1-.36.12.25.25,0,0,1-.17-.06.45.45,0,0,1-.13-.17,1.63,1.63,0,0,1-.07-.28,2.13,2.13,0,0,1,0-.37,1.58,1.58,0,0,1,0-.43.6.6,0,0,1,.16-.29,1.76,1.76,0,0,1,.43-.28,6.33,6.33,0,0,1,.72-.29,7.43,7.43,0,0,1,.9-.21,5.66,5.66,0,0,1,1-.08,6,6,0,0,1,1.58.18,2.76,2.76,0,0,1,1.08.55,2.17,2.17,0,0,1,.61,1A4.47,4.47,0,0,1,108,46Zm-2.17-3.35H105a4.74,4.74,0,0,0-.91.07,2,2,0,0,0-.62.24,1.05,1.05,0,0,0-.35.38,1.21,1.21,0,0,0-.11.52,1,1,0,0,0,.31.77,1.25,1.25,0,0,0,.87.28,1.7,1.7,0,0,0,.86-.23,3.52,3.52,0,0,0,.79-.7Z" transform="translate(-32.55 -34.22)"/><path class="cls-4" d="M114.72,50.45a2.38,2.38,0,0,1,0,.6.72.72,0,0,1-.12.29.91.91,0,0,1-.23.15,2.74,2.74,0,0,1-.37.11,2.7,2.7,0,0,1-.44.07l-.49,0a3.26,3.26,0,0,1-1.14-.17,1.84,1.84,0,0,1-.8-.51,2.14,2.14,0,0,1-.47-.87,4.65,4.65,0,0,1-.15-1.25v-4h-.94a.27.27,0,0,1-.25-.21,1.83,1.83,0,0,1-.09-.69,2.75,2.75,0,0,1,0-.43.81.81,0,0,1,.07-.27.25.25,0,0,1,.11-.15.24.24,0,0,1,.15,0h.93V41.34a.3.3,0,0,1,.05-.16.32.32,0,0,1,.17-.12A1.94,1.94,0,0,1,111,41l.53,0,.54,0a1.81,1.81,0,0,1,.34.07.32.32,0,0,1,.17.12.25.25,0,0,1,.06.16v1.75h1.7a.29.29,0,0,1,.16,0,.37.37,0,0,1,.11.15.83.83,0,0,1,.06.27,2.75,2.75,0,0,1,0,.43,2.13,2.13,0,0,1-.08.69.29.29,0,0,1-.26.21h-1.71v3.68a1.76,1.76,0,0,0,.2,1,.77.77,0,0,0,.72.33,1.58,1.58,0,0,0,.32,0l.25-.07.18-.07a.27.27,0,0,1,.14,0,.14.14,0,0,1,.1,0,.18.18,0,0,1,.07.12,1.09,1.09,0,0,1,0,.25A2.3,2.3,0,0,1,114.72,50.45Z" transform="translate(-32.55 -34.22)"/><path class="cls-4" d="M122.83,51.25a.25.25,0,0,1-.09.2.69.69,0,0,1-.28.1,3.78,3.78,0,0,1-.56,0,3.85,3.85,0,0,1-.57,0,.58.58,0,0,1-.26-.1.27.27,0,0,1-.07-.2v-.62a3.78,3.78,0,0,1-1.1.81,3.31,3.31,0,0,1-1.38.29,3.8,3.8,0,0,1-1.15-.17,2.3,2.3,0,0,1-.9-.48,2.11,2.11,0,0,1-.59-.79,2.59,2.59,0,0,1-.22-1.11,2.46,2.46,0,0,1,.27-1.19,2.22,2.22,0,0,1,.8-.84,4.18,4.18,0,0,1,1.32-.49,10,10,0,0,1,1.84-.15h.77V46a2.43,2.43,0,0,0-.08-.64,1.07,1.07,0,0,0-.25-.47,1,1,0,0,0-.45-.27,2.41,2.41,0,0,0-.71-.09,3.35,3.35,0,0,0-1,.13,5.73,5.73,0,0,0-.77.27l-.56.27a.79.79,0,0,1-.36.12.27.27,0,0,1-.17-.06.43.43,0,0,1-.12-.17,1,1,0,0,1-.08-.28,2.13,2.13,0,0,1,0-.37,1.58,1.58,0,0,1,0-.43.62.62,0,0,1,.17-.29,1.58,1.58,0,0,1,.43-.28,5.11,5.11,0,0,1,.72-.29,6.64,6.64,0,0,1,.9-.21,5.47,5.47,0,0,1,1-.08,6,6,0,0,1,1.58.18,2.63,2.63,0,0,1,1.08.55,2.17,2.17,0,0,1,.61,1,4.45,4.45,0,0,1,.2,1.4Zm-2.17-3.35h-.85a4.81,4.81,0,0,0-.91.07,2.11,2.11,0,0,0-.62.24,1,1,0,0,0-.34.38,1.08,1.08,0,0,0-.11.52,1,1,0,0,0,.31.77,1.22,1.22,0,0,0,.86.28,1.7,1.7,0,0,0,.86-.23,3.54,3.54,0,0,0,.8-.7Z" transform="translate(-32.55 -34.22)"/><path class="cls-4" d="M127.25,51.23a.27.27,0,0,1,0,.15.5.5,0,0,1-.18.11,2,2,0,0,1-.34.07l-.54,0-.54,0a1.68,1.68,0,0,1-.33-.07.37.37,0,0,1-.18-.11.22.22,0,0,1-.06-.15V39.67a.25.25,0,0,1,.06-.16.32.32,0,0,1,.18-.12,1.17,1.17,0,0,1,.33-.07,4.06,4.06,0,0,1,.54,0,4,4,0,0,1,.54,0,1.35,1.35,0,0,1,.34.07.41.41,0,0,1,.18.12.3.3,0,0,1,0,.16Z" transform="translate(-32.55 -34.22)"/><path class="cls-4" d="M137.38,47.23a6.22,6.22,0,0,1-.26,1.83,3.88,3.88,0,0,1-.8,1.42,3.49,3.49,0,0,1-1.35.92,5,5,0,0,1-1.89.33,5.3,5.3,0,0,1-1.82-.29,3.25,3.25,0,0,1-2-2.21,6.11,6.11,0,0,1-.25-1.84,6,6,0,0,1,.27-1.84,3.8,3.8,0,0,1,.8-1.42,3.65,3.65,0,0,1,1.34-.92,5,5,0,0,1,1.89-.32,5.33,5.33,0,0,1,1.83.28,3.14,3.14,0,0,1,1.27.84,3.54,3.54,0,0,1,.76,1.36A6.56,6.56,0,0,1,137.38,47.23Zm-2.27.08a5,5,0,0,0-.1-1.06,2.38,2.38,0,0,0-.31-.85,1.56,1.56,0,0,0-.58-.56,1.84,1.84,0,0,0-.92-.21,1.91,1.91,0,0,0-.86.18,1.64,1.64,0,0,0-.61.53,2.48,2.48,0,0,0-.36.84,5.21,5.21,0,0,0-.11,1.11,5.93,5.93,0,0,0,.09,1.07,2.62,2.62,0,0,0,.32.84,1.42,1.42,0,0,0,.58.56,2.18,2.18,0,0,0,1.78,0,1.53,1.53,0,0,0,.61-.52,2.31,2.31,0,0,0,.35-.83A4.75,4.75,0,0,0,135.11,47.31Z" transform="translate(-32.55 -34.22)"/><path class="cls-4" d="M146.2,43.93a1.47,1.47,0,0,1-.1.63c-.06.13-.14.2-.24.2h-.92a1.29,1.29,0,0,1,.28.48,2,2,0,0,1,.08.55,3.09,3.09,0,0,1-.23,1.22,2.37,2.37,0,0,1-.65.9,2.91,2.91,0,0,1-1,.55,4.34,4.34,0,0,1-1.34.19,2.84,2.84,0,0,1-.72-.09,1.56,1.56,0,0,1-.53-.22,1.52,1.52,0,0,0-.19.28.78.78,0,0,0-.08.35.47.47,0,0,0,.22.41,1.12,1.12,0,0,0,.63.18l1.91.08a4.72,4.72,0,0,1,1.19.18,2.71,2.71,0,0,1,.88.46,1.87,1.87,0,0,1,.54.71,2.16,2.16,0,0,1,.19.94,2.39,2.39,0,0,1-.25,1.09,2.53,2.53,0,0,1-.77.9,3.8,3.8,0,0,1-1.28.59,6.4,6.4,0,0,1-1.79.22,7.64,7.64,0,0,1-1.71-.16,3.71,3.71,0,0,1-1.16-.43,1.71,1.71,0,0,1-.66-.68,1.76,1.76,0,0,1-.21-.85,2,2,0,0,1,.08-.56,2,2,0,0,1,.21-.5,2.6,2.6,0,0,1,.36-.46,4.06,4.06,0,0,1,.48-.43,1.4,1.4,0,0,1-.58-.55,1.43,1.43,0,0,1-.21-.76,1.88,1.88,0,0,1,.24-.94,3,3,0,0,1,.62-.77,2.3,2.3,0,0,1-.5-.74,2.78,2.78,0,0,1-.18-1.07A3,3,0,0,1,139,44.6a2.66,2.66,0,0,1,.67-.91,3,3,0,0,1,1-.57,4.25,4.25,0,0,1,1.32-.2c.25,0,.48,0,.71,0a4.13,4.13,0,0,1,.63.13h2.48c.1,0,.18.06.25.19A1.69,1.69,0,0,1,146.2,43.93ZM143.88,52a.68.68,0,0,0-.32-.6,1.64,1.64,0,0,0-.87-.23l-1.57-.05a2.08,2.08,0,0,0-.37.33,2.47,2.47,0,0,0-.22.29,1,1,0,0,0-.11.27,2.45,2.45,0,0,0,0,.27.7.7,0,0,0,.44.67,2.68,2.68,0,0,0,1.25.23,3,3,0,0,0,.85-.1,1.66,1.66,0,0,0,.55-.27,1,1,0,0,0,.3-.37A1.08,1.08,0,0,0,143.88,52Zm-.52-6.25a1.36,1.36,0,0,0-.35-1,1.38,1.38,0,0,0-1-.35,1.48,1.48,0,0,0-.57.11,1.12,1.12,0,0,0-.41.3,1.11,1.11,0,0,0-.24.44,1.77,1.77,0,0,0-.08.52,1.31,1.31,0,0,0,.35,1,1.34,1.34,0,0,0,1,.34,1.47,1.47,0,0,0,.58-.1,1.22,1.22,0,0,0,.41-.29,1.43,1.43,0,0,0,.25-.43A1.69,1.69,0,0,0,143.36,45.79Z" transform="translate(-32.55 -34.22)"/><path class="cls-4" d="M155.1,51.23a.26.26,0,0,1,0,.15.34.34,0,0,1-.16.11,1.37,1.37,0,0,1-.29.07l-.45,0-.47,0a1.37,1.37,0,0,1-.29-.07.37.37,0,0,1-.15-.11.37.37,0,0,1,0-.15v-.91a5,5,0,0,1-1.32,1.06,3,3,0,0,1-1.39.35,3.05,3.05,0,0,1-1.36-.27,2.19,2.19,0,0,1-.89-.72,2.64,2.64,0,0,1-.48-1.06,6.28,6.28,0,0,1-.15-1.49v-4.8a.3.3,0,0,1,0-.16.38.38,0,0,1,.17-.11,1.39,1.39,0,0,1,.35-.06,3.89,3.89,0,0,1,.53,0,4,4,0,0,1,.54,0,1.22,1.22,0,0,1,.33.06.37.37,0,0,1,.18.11.25.25,0,0,1,.06.16v4.43a3.84,3.84,0,0,0,.08.94,1.53,1.53,0,0,0,.24.55,1.12,1.12,0,0,0,.41.37,1.35,1.35,0,0,0,.59.12,1.39,1.39,0,0,0,.84-.31,4.69,4.69,0,0,0,.91-.89V43.39a.3.3,0,0,1,0-.16.37.37,0,0,1,.18-.11,1.31,1.31,0,0,1,.34-.06,3.89,3.89,0,0,1,.53,0,4,4,0,0,1,.54,0,1.22,1.22,0,0,1,.33.06.5.5,0,0,1,.18.11.3.3,0,0,1,0,.16Z" transform="translate(-32.55 -34.22)"/><path class="cls-4" d="M164.57,47.08a.86.86,0,0,1-.18.6.69.69,0,0,1-.5.19h-4.77a3.23,3.23,0,0,0,.12.91,1.65,1.65,0,0,0,.37.69,1.74,1.74,0,0,0,.67.44,2.84,2.84,0,0,0,1,.15,5.09,5.09,0,0,0,1-.09,5.35,5.35,0,0,0,.76-.18l.53-.19a1.13,1.13,0,0,1,.35-.08.28.28,0,0,1,.13,0,.35.35,0,0,1,.09.11.63.63,0,0,1,0,.23,3.21,3.21,0,0,1,0,.36c0,.13,0,.24,0,.33s0,.17,0,.23a.69.69,0,0,1,0,.17.94.94,0,0,1-.09.12,1.07,1.07,0,0,1-.31.17,5.22,5.22,0,0,1-.66.21c-.26.06-.56.12-.9.17a7.44,7.44,0,0,1-1.09.08,5.6,5.6,0,0,1-1.83-.27,3.15,3.15,0,0,1-1.32-.8,3.27,3.27,0,0,1-.78-1.35,6.94,6.94,0,0,1,0-3.8,3.85,3.85,0,0,1,.79-1.42,3.55,3.55,0,0,1,1.26-.9,4.49,4.49,0,0,1,1.68-.3,4.28,4.28,0,0,1,1.68.29,3,3,0,0,1,1.15.8,3.34,3.34,0,0,1,.66,1.22,5.34,5.34,0,0,1,.21,1.53Zm-2.15-.64a2.3,2.3,0,0,0-.37-1.46,1.47,1.47,0,0,0-1.24-.53,1.54,1.54,0,0,0-1.25.58,2,2,0,0,0-.32.64,3.18,3.18,0,0,0-.12.77Z" transform="translate(-32.55 -34.22)"/><line class="cls-6" x1="68.6" y1="20.07" x2="104.78" y2="20.11"/><line class="cls-6" x1="114.37" y1="19.95" x2="131.83" y2="19.95"/><rect class="cls-2" y="3.99" width="3.53" height="8.29"/><rect class="cls-5" y="14.12" width="3.53" height="8.29"/></svg>